<svg width="82" height="24" viewBox="0 0 82 24" fill="none" xmlns="http://www.w3.org/2000/svg">
<path d="M4.62 4.778C4.16 4.298 3.93 3.728 3.93 3.068C3.93 2.408 4.16 1.848 4.62 1.388C5.1 0.907998 5.67 0.667997 6.33 0.667997C6.99 0.667997 7.55 0.907998 8.01 1.388C8.49 1.848 8.73 2.408 8.73 3.068C8.73 3.728 8.49 4.298 8.01 4.778C7.55 5.238 6.99 5.468 6.33 5.468C5.67 5.468 5.1 5.238 4.62 4.778ZM5.76 7.718C7.64 7.718 8.58 8.528 8.58 10.148V19.838C8.58 20.378 8.71 20.808 8.97 21.128C9.23 21.428 9.63 21.578 10.17 21.578C10.71 21.578 11.33 21.288 12.03 20.708L12.57 21.428C10.97 22.888 9.37 23.618 7.77 23.618C5.31 23.618 4.08 22.148 4.08 19.208V9.158C2.98 9.438 2.14 9.928 1.56 10.628L0.75 9.698C1.33 9.098 2.06 8.618 2.94 8.258C3.84 7.898 4.78 7.718 5.76 7.718ZM36.9218 2.048V9.758C37.6218 8.998 38.3718 8.468 39.1718 8.168C39.9918 7.868 41.0218 7.718 42.2618 7.718C43.5218 7.718 44.5418 8.118 45.3218 8.918C46.1218 9.698 46.5218 10.768 46.5218 12.128V19.838C46.5218 20.378 46.6518 20.808 46.9118 21.128C47.1718 21.428 47.5718 21.578 48.1118 21.578C48.6518 21.578 49.2718 21.288 49.9718 20.708L50.5118 21.428C48.9118 22.888 47.3118 23.618 45.7118 23.618C43.2518 23.618 42.0218 22.148 42.0218 19.208V11.498C42.0218 10.878 41.8318 10.398 41.4518 10.058C41.0718 9.718 40.5418 9.548 39.8618 9.548C39.1818 9.548 38.5218 9.828 37.8818 10.388C37.2418 10.948 36.9218 11.678 36.9218 12.578V23.168H32.4218V1.658C31.3218 1.938 30.4818 2.428 29.9018 3.128L29.0918 2.198C29.6718 1.598 30.4018 1.118 31.2818 0.757998C32.1818 0.397998 33.0618 0.217998 33.9218 0.217998C34.8018 0.217998 35.5218 0.397998 36.0818 0.757998C36.6418 1.098 36.9218 1.528 36.9218 2.048ZM54.0619 21.338C52.6019 19.798 51.8719 17.908 51.8719 15.668C51.8719 13.428 52.6019 11.548 54.0619 10.028C55.5419 8.488 57.4619 7.718 59.8219 7.718C62.1819 7.718 64.0919 8.488 65.5519 10.028C67.0319 11.548 67.7719 13.428 67.7719 15.668C67.7719 17.908 67.0319 19.798 65.5519 21.338C64.0919 22.858 62.1819 23.618 59.8219 23.618C57.4619 23.618 55.5419 22.858 54.0619 21.338ZM57.3619 10.868C56.8019 12.108 56.5219 13.708 56.5219 15.668C56.5219 17.628 56.8019 19.238 57.3619 20.498C57.9219 21.738 58.7519 22.358 59.8519 22.358C60.9519 22.358 61.7819 21.738 62.3419 20.498C62.9019 19.238 63.1819 17.628 63.1819 15.668C63.1819 13.708 62.9019 12.108 62.3419 10.868C61.7819 9.608 60.9519 8.978 59.8519 8.978C58.7519 8.978 57.9219 9.608 57.3619 10.868ZM70.8966 9.818V8.588H73.3566V4.268H77.8566V8.588H81.2466V9.818H77.8566V19.838C77.8566 20.378 77.9866 20.808 78.2466 21.128C78.5066 21.428 78.9066 21.578 79.4466 21.578C79.9866 21.578 80.6066 21.288 81.3066 20.708L81.8466 21.428C80.2466 22.888 78.6466 23.618 77.0466 23.618C74.5866 23.618 73.3566 22.148 73.3566 19.208V9.818H70.8966Z" fill="#0568A1"/>
<path d="M16.1524 19.298C16.1524 20.078 16.5324 20.758 17.2924 21.338C18.0524 21.918 19.0324 22.208 20.2324 22.208C21.4324 22.208 22.3824 21.918 23.0824 21.338C23.7824 20.758 24.1324 19.988 24.1324 19.028C24.1324 17.808 23.4024 16.798 21.9424 15.998L17.5024 13.628C14.9424 12.248 13.6624 10.278 13.6624 7.718C13.6624 6.078 14.2624 4.668 15.4624 3.488C16.6624 2.308 18.4524 1.718 20.8324 1.718C22.4324 1.718 23.9524 2.038 25.3924 2.678C26.8324 3.318 27.5524 4.078 27.5524 4.958C27.5524 5.298 27.4424 5.688 27.2224 6.128L25.7824 8.888L24.7324 8.558V6.038C24.7324 5.138 24.3324 4.428 23.5324 3.908C22.7524 3.388 21.8124 3.128 20.7124 3.128C19.6324 3.128 18.8024 3.448 18.2224 4.088C17.6424 4.728 17.3524 5.458 17.3524 6.278C17.3524 7.918 18.0924 9.128 19.5724 9.908L23.3824 11.918C26.2824 13.438 27.7324 15.438 27.7324 17.918C27.7324 19.798 27.0224 21.218 25.6024 22.178C24.2024 23.138 22.4224 23.618 20.2624 23.618C18.6424 23.618 17.0824 23.298 15.5824 22.658C14.0824 22.018 13.3324 21.258 13.3324 20.378C13.3324 20.038 13.4424 19.648 13.6624 19.208L15.1024 16.448L16.1524 16.778V19.298Z" fill="#B94B69"/>
</svg>
