<svg width="1440" height="900" viewBox="0 0 1440 900" fill="none" xmlns="http://www.w3.org/2000/svg">
<rect width="1440" height="900" fill="#F7F3F2"/>
<path d="M545.785 485.906C547.983 485.906 550.137 485.681 552.291 485.233C554.399 484.784 556.463 484.021 558.482 482.944C560.501 481.868 562.296 480.611 563.821 479.086C565.347 477.56 566.558 475.676 567.5 473.388C568.398 471.1 568.891 468.587 568.891 465.806C568.891 463.114 568.442 460.781 567.635 458.717C566.289 455.486 563.552 452.75 559.514 450.506C557.719 449.564 554.13 448.039 548.701 445.885C546.996 445.257 545.606 444.718 544.619 444.27C543.631 443.821 542.6 443.328 541.612 442.789C540.625 442.251 539.863 441.712 539.369 441.174C538.831 440.636 538.427 440.052 538.158 439.379C537.844 438.751 537.709 437.989 537.709 437.181C537.709 435.162 538.472 433.547 539.908 432.38C541.343 431.214 543.228 430.631 545.561 430.631C549.778 430.631 554.534 432.784 559.783 437.046L567.231 427.31C560.456 421.747 553.143 419.01 545.247 419.1C541.388 419.19 537.844 420.042 534.658 421.657C531.428 423.273 528.915 425.516 527.076 428.342C525.192 431.214 524.294 434.354 524.294 437.764C524.294 439.469 524.474 441.084 524.877 442.61C525.281 444.135 525.82 445.436 526.448 446.603C527.076 447.769 527.928 448.846 528.96 449.878C529.992 450.91 531.024 451.807 532.101 452.525C533.133 453.243 534.389 454.006 535.825 454.724C537.26 455.441 538.562 456.07 539.818 456.518C541.029 457.012 542.42 457.55 544.035 458.089C545.785 458.717 547.221 459.21 548.298 459.659C549.374 460.108 550.406 460.601 551.393 461.139C552.38 461.678 553.143 462.261 553.681 462.8C554.22 463.383 554.624 464.056 554.938 464.774C555.207 465.536 555.386 466.389 555.386 467.331C555.386 468.722 555.027 469.933 554.354 470.92C553.637 471.952 552.605 472.76 551.169 473.343C549.733 473.971 548.028 474.24 546.009 474.24C544.663 474.24 543.317 474.106 541.971 473.747C540.581 473.433 539.19 472.939 537.799 472.266C536.408 471.638 535.017 470.786 533.626 469.709C532.235 468.677 530.934 467.466 529.768 466.075L522.006 475.631C525.326 479.086 529.05 481.643 533.133 483.348C537.216 485.053 541.433 485.906 545.785 485.906ZM592.446 485.906C595.183 485.906 597.426 485.681 599.176 485.188C600.881 484.739 602.63 484.021 604.335 483.079L601.24 473.478C599.176 474.554 597.291 475.048 595.586 475.048C594.151 475.048 593.164 474.599 592.535 473.657C591.907 472.76 591.638 471.279 591.638 469.305V450.237H603.842V440.277H591.638V424.304L579.614 425.606V440.277H574.32V450.237H579.614V470.965C579.614 475.9 580.736 479.624 583.024 482.137C585.312 484.649 588.453 485.906 592.446 485.906ZM642.785 440.277V445.347H642.606C639.241 441.488 634.844 439.514 629.371 439.514C626.409 439.514 623.583 440.097 620.981 441.264C618.378 442.43 616.135 444.046 614.251 446.064C612.366 448.128 610.931 450.596 609.854 453.467C608.777 456.384 608.239 459.524 608.239 462.844C608.239 466.254 608.777 469.44 609.854 472.311C610.931 475.183 612.411 477.65 614.296 479.624C616.18 481.598 618.468 483.169 621.115 484.246C623.762 485.367 626.634 485.906 629.729 485.906C635.472 485.906 639.914 483.842 643.144 479.714H643.369V485.143H654.81V440.277H642.785ZM631.928 475.138C628.518 475.138 625.781 474.016 623.628 471.728C621.474 469.485 620.442 466.523 620.442 462.889C620.442 459.121 621.519 456.114 623.717 453.781C625.916 451.493 628.653 450.327 631.973 450.327C635.203 450.327 637.895 451.538 640.049 453.916C642.202 456.339 643.279 459.3 643.279 462.889C643.279 466.523 642.157 469.485 640.004 471.728C637.805 474.016 635.113 475.138 631.928 475.138ZM692.318 439.514C689.626 439.514 687.158 440.187 684.825 441.443C682.492 442.7 680.473 444.539 678.768 446.872H678.633V440.277H666.609V485.143H678.633V464.325C678.633 460.915 679.621 458.089 681.64 455.89C683.658 453.737 686.485 452.615 690.074 452.615C690.972 452.615 692.048 452.66 693.26 452.75V439.559C693.08 439.559 692.766 439.514 692.318 439.514ZM715.02 485.906C717.757 485.906 720 485.681 721.75 485.188C723.455 484.739 725.204 484.021 726.909 483.079L723.814 473.478C721.75 474.554 719.865 475.048 718.16 475.048C716.725 475.048 715.738 474.599 715.11 473.657C714.481 472.76 714.212 471.279 714.212 469.305V450.237H726.416V440.277H714.212V424.304L702.188 425.606V440.277H696.894V450.237H702.188V470.965C702.188 475.9 703.31 479.624 705.598 482.137C707.886 484.649 711.027 485.906 715.02 485.906ZM778.505 419.863V463.966H778.326L749.298 419.863H736.421V485.143H749.298V441.892H749.477L778.191 485.143H791.427V419.863H778.505ZM836.427 485.771C841.363 485.771 846.119 485.053 850.695 483.573C855.271 482.137 859.085 480.163 862.136 477.695V449.564H834.992V460.646H849.663V470.247C845.67 472.76 841.273 473.971 836.427 473.971C832.434 473.971 828.935 473.029 825.884 471.145C822.833 469.26 820.545 466.703 818.975 463.473C817.359 460.242 816.597 456.653 816.597 452.615C816.597 449.385 817.09 446.379 818.077 443.687C819.064 440.995 820.455 438.706 822.205 436.912C823.955 435.117 826.019 433.726 828.352 432.739C830.685 431.752 833.197 431.259 835.889 431.259C842.395 431.259 848.003 433.547 852.669 438.033L861.822 430.272C858.546 426.637 854.598 423.856 850.022 421.971C845.401 420.087 840.69 419.1 835.889 419.1C830.864 419.1 826.333 419.952 822.205 421.657C818.077 423.362 814.623 425.74 811.841 428.701C809.059 431.707 806.95 435.252 805.425 439.335C803.9 443.462 803.137 447.859 803.137 452.615C803.137 457.73 803.989 462.396 805.694 466.613C807.399 470.831 809.732 474.285 812.738 477.067C815.699 479.849 819.244 482.002 823.282 483.528C827.32 485.053 831.717 485.771 836.427 485.771Z" fill="black"/>
<path d="M897.842 489.398C901.543 489.398 904.751 488.082 907.383 485.45C910.015 482.818 911.414 479.692 911.414 475.991C911.414 472.372 910.015 469.164 907.383 466.532C904.751 463.899 901.543 462.501 897.842 462.501C893.976 462.501 890.685 463.817 888.053 466.449C885.421 469.081 884.105 472.289 884.105 475.991C884.105 479.775 885.421 482.9 888.053 485.532C890.685 488.165 893.976 489.398 897.842 489.398Z" fill="#E7332B"/>
</svg>
