<svg width="375" height="812" viewBox="0 0 375 812" fill="none" xmlns="http://www.w3.org/2000/svg">
<g clip-path="url(#clip0)">
<rect width="375" height="812" fill="#0E4CA8"/>
<path fill-rule="evenodd" clip-rule="evenodd" d="M281.038 476.047C288.248 476.264 295.447 477.291 301.959 480.394C308.482 483.502 314.075 488.248 318.55 493.922C323.012 499.581 326.173 506.142 327.8 513.163C329.43 520.195 329.314 527.455 327.966 534.547C326.59 541.783 324.108 548.781 319.881 554.812C315.528 561.023 309.994 566.486 303.207 569.871C296.385 573.274 288.657 574.466 281.038 574.187C273.548 573.914 266.376 571.556 259.636 568.279C252.91 565.008 246.503 560.943 241.815 555.115C237.12 549.278 234.19 542.21 232.752 534.857C231.336 527.612 232.095 520.235 233.581 513.004C235.087 505.676 236.951 498.245 241.496 492.302C246.073 486.318 252.532 481.977 259.501 479.113C266.293 476.321 273.698 475.825 281.038 476.047Z" fill="#C4C4C4" fill-opacity="0.15"/>
<path fill-rule="evenodd" clip-rule="evenodd" d="M-0.239222 723.023C3.25413 723.128 6.74258 723.626 9.89761 725.129C13.0584 726.635 15.7683 728.934 17.9364 731.684C20.0987 734.426 21.6303 737.605 22.4187 741.007C23.2085 744.414 23.1522 747.932 22.4989 751.368C21.8322 754.874 20.6298 758.265 18.5815 761.187C16.4724 764.197 13.791 766.844 10.5026 768.484C7.19686 770.133 3.45246 770.71 -0.239222 770.575C-3.86839 770.443 -7.34351 769.3 -10.6095 767.712C-13.8684 766.128 -16.9729 764.158 -19.2442 761.334C-21.5194 758.506 -22.9389 755.081 -23.6355 751.518C-24.322 748.008 -23.9539 744.434 -23.2341 740.93C-22.5045 737.379 -21.6012 733.778 -19.399 730.899C-17.1813 727.999 -14.0513 725.896 -10.675 724.508C-7.38392 723.155 -3.79586 722.915 -0.239222 723.023Z" fill="#C4C4C4" fill-opacity="0.15"/>
<path fill-rule="evenodd" clip-rule="evenodd" d="M69.0382 207.047C76.2479 207.264 83.4475 208.291 89.9589 211.394C96.4823 214.502 102.075 219.248 106.55 224.922C111.012 230.581 114.173 237.142 115.8 244.163C117.43 251.195 117.314 258.455 115.966 265.547C114.59 272.783 112.108 279.781 107.881 285.812C103.528 292.023 97.9941 297.486 91.2075 300.871C84.385 304.274 76.6572 305.466 69.0382 305.187C61.5482 304.914 54.3762 302.556 47.6358 299.279C40.9099 296.008 34.5026 291.943 29.8152 286.115C25.1196 280.278 22.1899 273.21 20.7522 265.857C19.3355 258.612 20.0951 251.235 21.5808 244.004C23.0865 236.676 24.9507 229.245 29.4957 223.302C34.0726 217.318 40.5324 212.977 47.5006 210.113C54.2928 207.321 61.6979 206.825 69.0382 207.047Z" fill="#C4C4C4" fill-opacity="0.15"/>
<path fill-rule="evenodd" clip-rule="evenodd" d="M108.761 64.0226C112.254 64.128 115.743 64.6255 118.898 66.129C122.058 67.6352 124.768 69.9344 126.936 72.6837C129.099 75.4257 130.63 78.605 131.419 82.0068C132.208 85.4142 132.152 88.932 131.499 92.3682C130.832 95.874 129.63 99.265 127.582 102.187C125.472 105.197 122.791 107.844 119.503 109.484C116.197 111.133 112.452 111.71 108.761 111.575C105.132 111.443 101.656 110.3 98.3905 108.712C95.1316 107.128 92.0271 105.158 89.7558 102.334C87.4806 99.5058 86.0611 96.0809 85.3645 92.5184C84.678 89.008 85.0461 85.4336 85.7659 81.9299C86.4955 78.3789 87.3988 74.7785 89.601 71.8989C91.8187 68.9992 94.9487 66.8963 98.325 65.5083C101.616 64.1554 105.204 63.9153 108.761 64.0226Z" fill="#C4C4C4" fill-opacity="0.15"/>
<path fill-rule="evenodd" clip-rule="evenodd" d="M280.761 282.023C284.254 282.128 287.743 282.626 290.898 284.129C294.058 285.635 296.768 287.934 298.936 290.684C301.099 293.426 302.63 296.605 303.419 300.007C304.208 303.414 304.152 306.932 303.499 310.368C302.832 313.874 301.63 317.265 299.582 320.187C297.472 323.197 294.791 325.844 291.503 327.484C288.197 329.133 284.452 329.71 280.761 329.575C277.132 329.443 273.656 328.3 270.391 326.712C267.132 325.128 264.027 323.158 261.756 320.334C259.481 317.506 258.061 314.081 257.364 310.518C256.678 307.008 257.046 303.434 257.766 299.93C258.496 296.379 259.399 292.778 261.601 289.899C263.819 286.999 266.949 284.896 270.325 283.508C273.616 282.155 277.204 281.915 280.761 282.023Z" fill="#C4C4C4" fill-opacity="0.15"/>
<path fill-rule="evenodd" clip-rule="evenodd" d="M131.761 784.023C135.254 784.128 138.743 784.626 141.898 786.129C145.058 787.635 147.768 789.934 149.936 792.684C152.099 795.426 153.63 798.605 154.419 802.007C155.208 805.414 155.152 808.932 154.499 812.368C153.832 815.874 152.63 819.265 150.582 822.187C148.472 825.197 145.791 827.844 142.503 829.484C139.197 831.133 135.452 831.71 131.761 831.575C128.132 831.443 124.656 830.3 121.391 828.712C118.132 827.128 115.027 825.158 112.756 822.334C110.481 819.506 109.061 816.081 108.364 812.518C107.678 809.008 108.046 805.434 108.766 801.93C109.496 798.379 110.399 794.778 112.601 791.899C114.819 788.999 117.949 786.896 121.325 785.508C124.616 784.155 128.204 783.915 131.761 784.023Z" fill="#C4C4C4" fill-opacity="0.15"/>
<path fill-rule="evenodd" clip-rule="evenodd" d="M354.761 -11.9774C358.254 -11.872 361.743 -11.3745 364.898 -9.87102C368.058 -8.36479 370.768 -6.0656 372.936 -3.31625C375.099 -0.574286 376.63 2.60502 377.419 6.00681C378.208 9.41421 378.152 12.932 377.499 16.3682C376.832 19.874 375.63 23.265 373.582 26.1874C371.472 29.1966 368.791 31.8436 365.503 33.4839C362.197 35.1328 358.452 35.7102 354.761 35.5753C351.132 35.4427 347.656 34.3004 344.391 32.7124C341.132 31.1278 338.027 29.1579 335.756 26.3343C333.481 23.5058 332.061 20.0809 331.364 16.5184C330.678 13.008 331.046 9.43359 331.766 5.92991C332.496 2.37895 333.399 -1.22152 335.601 -4.10106C337.819 -7.00076 340.949 -9.10371 344.325 -10.4917C347.616 -11.8446 351.204 -12.0847 354.761 -11.9774Z" fill="#C4C4C4" fill-opacity="0.15"/>
<path fill-rule="evenodd" clip-rule="evenodd" d="M187.761 382.023C191.254 382.128 194.743 382.626 197.898 384.129C201.058 385.635 203.768 387.934 205.936 390.684C208.099 393.426 209.63 396.605 210.419 400.007C211.208 403.414 211.152 406.932 210.499 410.368C209.832 413.874 208.63 417.265 206.582 420.187C204.472 423.197 201.791 425.844 198.503 427.484C195.197 429.133 191.452 429.71 187.761 429.575C184.132 429.443 180.656 428.3 177.391 426.712C174.132 425.128 171.027 423.158 168.756 420.334C166.481 417.506 165.061 414.081 164.364 410.518C163.678 407.008 164.046 403.434 164.766 399.93C165.496 396.379 166.399 392.778 168.601 389.899C170.819 386.999 173.949 384.896 177.325 383.508C180.616 382.155 184.204 381.915 187.761 382.023Z" fill="#C4C4C4" fill-opacity="0.15"/>
<path fill-rule="evenodd" clip-rule="evenodd" d="M307.038 686.047C314.248 686.264 321.447 687.291 327.959 690.394C334.482 693.502 340.075 698.248 344.55 703.922C349.012 709.581 352.173 716.142 353.8 723.163C355.43 730.195 355.314 737.455 353.966 744.547C352.59 751.783 350.108 758.781 345.881 764.812C341.528 771.023 335.994 776.486 329.207 779.871C322.385 783.274 314.657 784.466 307.038 784.187C299.548 783.914 292.376 781.556 285.636 778.279C278.91 775.008 272.503 770.943 267.815 765.115C263.12 759.278 260.19 752.21 258.752 744.857C257.336 737.612 258.095 730.235 259.581 723.004C261.087 715.676 262.951 708.245 267.496 702.302C272.073 696.318 278.532 691.977 285.501 689.113C292.293 686.321 299.698 685.825 307.038 686.047Z" fill="#C4C4C4" fill-opacity="0.15"/>
<path fill-rule="evenodd" clip-rule="evenodd" d="M101.038 539.047C108.248 539.264 115.447 540.291 121.959 543.394C128.482 546.502 134.075 551.248 138.55 556.922C143.012 562.581 146.173 569.142 147.8 576.163C149.43 583.195 149.314 590.455 147.966 597.547C146.59 604.783 144.108 611.781 139.881 617.812C135.528 624.023 129.994 629.486 123.207 632.871C116.385 636.274 108.657 637.466 101.038 637.187C93.5482 636.914 86.3762 634.556 79.6358 631.279C72.9099 628.008 66.5026 623.943 61.8152 618.115C57.1196 612.278 54.1899 605.21 52.7522 597.857C51.3355 590.612 52.0951 583.235 53.5808 576.004C55.0865 568.676 56.9507 561.245 61.4957 555.302C66.0726 549.318 72.5324 544.977 79.5006 542.113C86.2928 539.321 93.6979 538.825 101.038 539.047Z" fill="#C4C4C4" fill-opacity="0.15"/>
<path fill-rule="evenodd" clip-rule="evenodd" d="M256.038 88.0466C263.248 88.2641 270.447 89.291 276.959 92.3939C283.482 95.5024 289.075 100.248 293.55 105.922C298.012 111.581 301.173 118.142 302.8 125.163C304.43 132.195 304.314 139.455 302.966 146.547C301.59 153.783 299.108 160.781 294.881 166.812C290.528 173.023 284.994 178.486 278.207 181.871C271.385 185.274 263.657 186.466 256.038 186.187C248.548 185.914 241.376 183.556 234.636 180.279C227.91 177.008 221.503 172.943 216.815 167.115C212.12 161.278 209.19 154.21 207.752 146.857C206.336 139.612 207.095 132.235 208.581 125.004C210.087 117.676 211.951 110.245 216.496 104.302C221.073 98.3176 227.532 93.9775 234.501 91.1129C241.293 88.3207 248.698 87.8251 256.038 88.0466Z" fill="#C4C4C4" fill-opacity="0.15"/>
<path d="M66.8359 355.463V361.035C65.7109 361.398 64.7031 361.58 63.8125 361.58C60.7305 361.58 58.2285 360.426 56.3066 358.117C54.3965 355.797 53.4414 352.75 53.4414 348.977C53.4414 345.473 54.4082 342.584 56.3418 340.311C58.2754 338.025 60.7188 336.883 63.6719 336.883C64.8203 336.883 65.875 337.035 66.8359 337.34V342.93C65.8164 342.59 64.8555 342.42 63.9531 342.42C62.5703 342.42 61.4219 343.053 60.5078 344.318C59.5938 345.584 59.1367 347.195 59.1367 349.152C59.1367 351.262 59.5938 352.932 60.5078 354.162C61.4336 355.381 62.6641 355.99 64.1992 355.99C64.9492 355.99 65.8281 355.814 66.8359 355.463ZM69.877 336.232H74.9922V361H69.877V336.232ZM86.6113 356.061H90.918C90.0977 359.693 88.0469 361.51 84.7656 361.51C82.7148 361.51 81.0918 360.73 79.8965 359.172C78.7012 357.613 78.1035 355.463 78.1035 352.721C78.1035 350.166 78.7012 348.121 79.8965 346.586C81.0918 345.039 82.6797 344.266 84.6602 344.266C85.8555 344.266 87.0039 344.641 88.1055 345.391C89.207 346.129 90.0098 347.113 90.5137 348.344C91.0176 349.574 91.2988 351.514 91.3574 354.162H82.832C82.9023 356.564 83.5703 357.766 84.8359 357.766C85.2695 357.766 85.6562 357.607 85.9961 357.291C86.3359 356.975 86.541 356.564 86.6113 356.061ZM82.9023 351.385H86.6113C86.5762 350.248 86.418 349.41 86.1367 348.871C85.8555 348.32 85.4102 348.045 84.8008 348.045C84.1211 348.045 83.6348 348.309 83.3418 348.836C83.0488 349.363 82.9023 350.213 82.9023 351.385ZM102.396 361V358.873H102.326C101.705 359.787 101.102 360.461 100.516 360.895C99.9414 361.328 99.2617 361.545 98.4766 361.545C96.9414 361.545 95.7168 360.76 94.8027 359.189C93.8887 357.619 93.4316 355.486 93.4316 352.791C93.4316 350.201 93.8945 348.139 94.8203 346.604C95.7461 345.068 96.9648 344.301 98.4766 344.301C99.2852 344.301 99.9707 344.506 100.533 344.916C101.096 345.314 101.682 345.959 102.291 346.85H102.361V344.828H107.477V361H102.396ZM102.396 352.826C102.396 350.143 101.74 348.801 100.428 348.801C99.1035 348.801 98.4414 350.143 98.4414 352.826C98.4414 355.615 99.127 357.01 100.498 357.01C101.764 357.01 102.396 355.615 102.396 352.826ZM116.494 344.828V347.025H116.582C117.777 345.209 119.236 344.301 120.959 344.301C122.084 344.301 122.975 344.676 123.631 345.426C124.299 346.176 124.633 347.189 124.633 348.467V361H119.518V351.033C119.518 350.482 119.389 350.031 119.131 349.68C118.873 349.328 118.539 349.152 118.129 349.152C117.039 349.152 116.494 349.838 116.494 351.209V361H111.396V344.828H116.494ZM126.812 337.533H131.928L134.951 351.684H135.021L137.764 337.533H142.404L145.182 351.525H145.252L148.135 337.533H153.391L147.766 361H142.949L140.717 350.506C140.471 349.357 140.266 348.25 140.102 347.184H140.031C139.738 349 139.527 350.213 139.398 350.822L137.184 361H132.438L126.812 337.533ZM163.076 361V358.873H163.006C162.385 359.787 161.781 360.461 161.195 360.895C160.621 361.328 159.941 361.545 159.156 361.545C157.621 361.545 156.396 360.76 155.482 359.189C154.568 357.619 154.111 355.486 154.111 352.791C154.111 350.201 154.574 348.139 155.5 346.604C156.426 345.068 157.645 344.301 159.156 344.301C159.965 344.301 160.65 344.506 161.213 344.916C161.775 345.314 162.361 345.959 162.971 346.85H163.041V344.828H168.156V361H163.076ZM163.076 352.826C163.076 350.143 162.42 348.801 161.107 348.801C159.783 348.801 159.121 350.143 159.121 352.826C159.121 355.615 159.807 357.01 161.178 357.01C162.443 357.01 163.076 355.615 163.076 352.826ZM172.709 340.521H177.824V344.828H179.811V349.082H177.789V361H172.709V349.047H170.775V344.828H172.709V340.521ZM190.006 356.061H194.312C193.492 359.693 191.441 361.51 188.16 361.51C186.109 361.51 184.486 360.73 183.291 359.172C182.096 357.613 181.498 355.463 181.498 352.721C181.498 350.166 182.096 348.121 183.291 346.586C184.486 345.039 186.074 344.266 188.055 344.266C189.25 344.266 190.398 344.641 191.5 345.391C192.602 346.129 193.404 347.113 193.908 348.344C194.412 349.574 194.693 351.514 194.752 354.162H186.227C186.297 356.564 186.965 357.766 188.23 357.766C188.664 357.766 189.051 357.607 189.391 357.291C189.73 356.975 189.936 356.564 190.006 356.061ZM186.297 351.385H190.006C189.971 350.248 189.812 349.41 189.531 348.871C189.25 348.32 188.805 348.045 188.195 348.045C187.516 348.045 187.029 348.309 186.736 348.836C186.443 349.363 186.297 350.213 186.297 351.385ZM202.627 344.828V347.535H202.697C203.916 345.426 205.199 344.371 206.547 344.371C206.746 344.371 207.021 344.406 207.373 344.477V349.486C206.752 349.381 206.178 349.328 205.65 349.328C203.775 349.328 202.838 350.541 202.838 352.967V361H197.74V344.828H202.627ZM219.537 360.561V355.094C221.225 356.078 222.643 356.57 223.791 356.57C224.459 356.57 224.986 356.389 225.373 356.025C225.76 355.65 225.953 355.158 225.953 354.549C225.953 354.08 225.795 353.641 225.479 353.23C225.174 352.82 224.641 352.322 223.879 351.736C222.039 350.33 220.703 349.023 219.871 347.816C219.051 346.598 218.641 345.244 218.641 343.756C218.641 341.729 219.279 340.076 220.557 338.799C221.834 337.521 223.486 336.883 225.514 336.883C227.014 336.883 228.502 337.205 229.979 337.85V343.105C228.396 342.238 227.113 341.805 226.129 341.805C225.473 341.805 224.951 341.969 224.564 342.297C224.189 342.613 224.002 343.053 224.002 343.615C224.002 344.6 224.887 345.707 226.656 346.938C227.711 347.664 228.777 348.689 229.855 350.014C230.945 351.326 231.49 352.85 231.49 354.584C231.49 356.611 230.781 358.293 229.363 359.629C227.945 360.953 226.146 361.615 223.967 361.615C222.479 361.615 221.002 361.264 219.537 360.561ZM243.531 356.061V360.279C242.312 361.1 241.088 361.51 239.857 361.51C238.041 361.51 236.582 360.725 235.48 359.154C234.391 357.572 233.846 355.451 233.846 352.791C233.846 350.271 234.408 348.221 235.533 346.639C236.658 345.057 238.111 344.266 239.893 344.266C241.135 344.266 242.359 344.705 243.566 345.584V349.768C242.875 349.404 242.254 349.223 241.703 349.223C240.883 349.223 240.221 349.557 239.717 350.225C239.213 350.881 238.961 351.76 238.961 352.861C238.961 354.021 239.207 354.936 239.699 355.604C240.191 356.271 240.859 356.605 241.703 356.605C242.219 356.605 242.828 356.424 243.531 356.061ZM254.588 361V358.873H254.518C253.896 359.787 253.293 360.461 252.707 360.895C252.133 361.328 251.453 361.545 250.668 361.545C249.133 361.545 247.908 360.76 246.994 359.189C246.08 357.619 245.623 355.486 245.623 352.791C245.623 350.201 246.086 348.139 247.012 346.604C247.938 345.068 249.156 344.301 250.668 344.301C251.477 344.301 252.162 344.506 252.725 344.916C253.287 345.314 253.873 345.959 254.482 346.85H254.553V344.828H259.668V361H254.588ZM254.588 352.826C254.588 350.143 253.932 348.801 252.619 348.801C251.295 348.801 250.633 350.143 250.633 352.826C250.633 355.615 251.318 357.01 252.689 357.01C253.955 357.01 254.588 355.615 254.588 352.826ZM268.686 344.828V347.025H268.773C269.969 345.209 271.428 344.301 273.15 344.301C274.275 344.301 275.166 344.676 275.822 345.426C276.49 346.176 276.824 347.189 276.824 348.467V361H271.709V351.033C271.709 350.482 271.58 350.031 271.322 349.68C271.064 349.328 270.73 349.152 270.32 349.152C269.23 349.152 268.686 349.838 268.686 351.209V361H263.588V344.828H268.686ZM285.701 344.828V347.025H285.789C286.984 345.209 288.443 344.301 290.166 344.301C291.291 344.301 292.182 344.676 292.838 345.426C293.506 346.176 293.84 347.189 293.84 348.467V361H288.725V351.033C288.725 350.482 288.596 350.031 288.338 349.68C288.08 349.328 287.746 349.152 287.336 349.152C286.246 349.152 285.701 349.838 285.701 351.209V361H280.604V344.828H285.701ZM305.213 356.061H309.52C308.699 359.693 306.648 361.51 303.367 361.51C301.316 361.51 299.693 360.73 298.498 359.172C297.303 357.613 296.705 355.463 296.705 352.721C296.705 350.166 297.303 348.121 298.498 346.586C299.693 345.039 301.281 344.266 303.262 344.266C304.457 344.266 305.605 344.641 306.707 345.391C307.809 346.129 308.611 347.113 309.115 348.344C309.619 349.574 309.9 351.514 309.959 354.162H301.434C301.504 356.564 302.172 357.766 303.438 357.766C303.871 357.766 304.258 357.607 304.598 357.291C304.938 356.975 305.143 356.564 305.213 356.061ZM301.504 351.385H305.213C305.178 350.248 305.02 349.41 304.738 348.871C304.457 348.32 304.012 348.045 303.402 348.045C302.723 348.045 302.236 348.309 301.943 348.836C301.65 349.363 301.504 350.213 301.504 351.385ZM317.834 344.828V347.535H317.904C319.123 345.426 320.406 344.371 321.754 344.371C321.953 344.371 322.229 344.406 322.58 344.477V349.486C321.959 349.381 321.385 349.328 320.857 349.328C318.982 349.328 318.045 350.541 318.045 352.967V361H312.947V344.828H317.834Z" fill="white"/>
<path d="M52 318.167C52 316.531 52.6497 314.963 53.8062 313.806C54.9626 312.65 56.5312 312 58.1667 312H70.5V318.167H58.1667V330.5H52V318.167ZM126 379.833C126 381.469 125.35 383.037 124.194 384.194C123.037 385.35 121.469 386 119.833 386H107.5V379.833H119.833V367.5H126V379.833ZM58.1667 386C56.5312 386 54.9626 385.35 53.8062 384.194C52.6497 383.037 52 381.469 52 379.833V367.5H58.1667V379.833H70.5V386H58.1667ZM119.833 312C121.469 312 123.037 312.65 124.194 313.806C125.35 314.963 126 316.531 126 318.167V330.5H119.833V318.167H107.5V312H119.833Z" fill="white"/>
<path d="M126.976 412.499V410.346C127.169 410.521 127.397 410.68 127.661 410.82C127.931 410.961 128.215 411.081 128.514 411.181C128.812 411.274 129.111 411.348 129.41 411.4C129.709 411.453 129.984 411.479 130.236 411.479C131.115 411.479 131.769 411.333 132.196 411.04C132.63 410.747 132.847 410.322 132.847 409.766C132.847 409.467 132.773 409.209 132.627 408.992C132.486 408.77 132.287 408.567 132.029 408.386C131.771 408.204 131.467 408.031 131.115 407.867C130.77 407.697 130.397 407.521 129.999 407.34C129.571 407.111 129.173 406.88 128.804 406.646C128.435 406.411 128.112 406.153 127.837 405.872C127.567 405.585 127.354 405.263 127.195 404.905C127.043 404.548 126.967 404.129 126.967 403.648C126.967 403.057 127.099 402.544 127.362 402.11C127.632 401.671 127.983 401.311 128.417 401.029C128.856 400.742 129.354 400.531 129.911 400.396C130.468 400.256 131.036 400.186 131.616 400.186C132.935 400.186 133.896 400.335 134.499 400.634V402.699C133.784 402.184 132.864 401.926 131.739 401.926C131.429 401.926 131.118 401.955 130.808 402.014C130.503 402.072 130.228 402.169 129.981 402.304C129.741 402.438 129.545 402.611 129.393 402.822C129.24 403.033 129.164 403.288 129.164 403.587C129.164 403.868 129.223 404.111 129.34 404.316C129.457 404.521 129.627 404.709 129.85 404.879C130.078 405.049 130.354 405.216 130.676 405.38C131.004 405.538 131.382 405.711 131.81 405.898C132.249 406.127 132.662 406.367 133.049 406.619C133.441 406.871 133.784 407.149 134.077 407.454C134.376 407.759 134.61 408.099 134.78 408.474C134.956 408.843 135.044 409.265 135.044 409.739C135.044 410.378 134.915 410.917 134.657 411.356C134.399 411.796 134.051 412.153 133.611 412.429C133.178 412.704 132.677 412.903 132.108 413.026C131.54 413.149 130.939 413.211 130.307 413.211C130.096 413.211 129.835 413.193 129.524 413.158C129.22 413.129 128.906 413.082 128.584 413.018C128.262 412.959 127.957 412.886 127.67 412.798C127.383 412.71 127.151 412.61 126.976 412.499ZM143.578 412.587C142.857 413.003 142.005 413.211 141.021 413.211C139.685 413.211 138.606 412.795 137.786 411.963C136.966 411.125 136.556 410.041 136.556 408.711C136.556 407.229 136.995 406.039 137.874 405.143C138.759 404.24 139.939 403.789 141.416 403.789C142.236 403.789 142.96 403.933 143.587 404.22V406.118C142.96 405.649 142.292 405.415 141.583 405.415C140.722 405.415 140.016 405.708 139.465 406.294C138.914 406.874 138.639 407.636 138.639 408.579C138.639 409.511 138.896 410.246 139.412 410.785C139.934 411.324 140.631 411.594 141.504 411.594C142.236 411.594 142.928 411.333 143.578 410.812V412.587ZM152.517 413H150.539V411.594H150.504C149.883 412.672 148.972 413.211 147.771 413.211C146.886 413.211 146.191 412.971 145.688 412.49C145.189 412.01 144.94 411.374 144.94 410.583C144.94 408.884 145.919 407.894 147.876 407.612L150.548 407.234C150.548 405.951 149.938 405.31 148.72 405.31C147.647 405.31 146.681 405.679 145.819 406.417V404.633C146.769 404.07 147.864 403.789 149.106 403.789C151.38 403.789 152.517 404.908 152.517 407.146V413ZM150.548 408.579L148.658 408.843C148.072 408.919 147.63 409.062 147.331 409.273C147.038 409.479 146.892 409.842 146.892 410.363C146.892 410.744 147.026 411.058 147.296 411.304C147.571 411.544 147.938 411.664 148.395 411.664C149.016 411.664 149.528 411.447 149.933 411.014C150.343 410.574 150.548 410.023 150.548 409.361V408.579ZM163.028 413H160.989V407.929C160.989 406.247 160.395 405.406 159.205 405.406C158.584 405.406 158.071 405.641 157.667 406.109C157.263 406.572 157.061 407.158 157.061 407.867V413H155.013V404H157.061V405.494H157.096C157.77 404.357 158.742 403.789 160.014 403.789C160.992 403.789 161.739 404.108 162.255 404.747C162.771 405.38 163.028 406.297 163.028 407.498V413ZM177.39 413H175.412V411.594H175.377C174.756 412.672 173.845 413.211 172.644 413.211C171.759 413.211 171.064 412.971 170.561 412.49C170.062 412.01 169.813 411.374 169.813 410.583C169.813 408.884 170.792 407.894 172.749 407.612L175.421 407.234C175.421 405.951 174.812 405.31 173.593 405.31C172.521 405.31 171.554 405.679 170.692 406.417V404.633C171.642 404.07 172.737 403.789 173.979 403.789C176.253 403.789 177.39 404.908 177.39 407.146V413ZM175.421 408.579L173.531 408.843C172.945 408.919 172.503 409.062 172.204 409.273C171.911 409.479 171.765 409.842 171.765 410.363C171.765 410.744 171.899 411.058 172.169 411.304C172.444 411.544 172.811 411.664 173.268 411.664C173.889 411.664 174.401 411.447 174.806 411.014C175.216 410.574 175.421 410.023 175.421 409.361V408.579ZM187.901 413H185.862V407.929C185.862 406.247 185.268 405.406 184.078 405.406C183.457 405.406 182.944 405.641 182.54 406.109C182.136 406.572 181.934 407.158 181.934 407.867V413H179.886V404H181.934V405.494H181.969C182.643 404.357 183.615 403.789 184.887 403.789C185.865 403.789 186.612 404.108 187.128 404.747C187.644 405.38 187.901 406.297 187.901 407.498V413ZM198.58 413H196.541V411.471H196.506C195.85 412.631 194.839 413.211 193.474 413.211C192.366 413.211 191.479 412.81 190.811 412.007C190.148 411.198 189.817 410.1 189.817 408.711C189.817 407.223 190.184 406.03 190.916 405.134C191.654 404.237 192.636 403.789 193.86 403.789C195.073 403.789 195.955 404.275 196.506 405.248H196.541V399.676H198.58V413ZM196.567 408.887V407.709C196.567 407.07 196.359 406.528 195.943 406.083C195.527 405.638 194.997 405.415 194.353 405.415C193.591 405.415 192.99 405.699 192.551 406.268C192.117 406.836 191.9 407.624 191.9 408.632C191.9 409.546 192.108 410.27 192.524 410.803C192.946 411.33 193.512 411.594 194.221 411.594C194.918 411.594 195.483 411.339 195.917 410.829C196.351 410.313 196.567 409.666 196.567 408.887ZM206.429 413V400.396H210.067C214.714 400.396 217.037 402.444 217.037 406.54C217.037 408.485 216.393 410.05 215.104 411.233C213.814 412.411 212.086 413 209.918 413H206.429ZM208.512 402.172V411.233H210.182C211.652 411.233 212.795 410.829 213.609 410.021C214.43 409.212 214.84 408.069 214.84 406.593C214.84 403.646 213.313 402.172 210.261 402.172H208.512ZM224.341 405.942C224.095 405.749 223.74 405.652 223.277 405.652C222.674 405.652 222.17 405.925 221.766 406.47C221.361 407.015 221.159 407.756 221.159 408.693V413H219.12V404H221.159V405.854H221.194C221.394 405.222 221.698 404.729 222.108 404.378C222.524 404.021 222.987 403.842 223.497 403.842C223.866 403.842 224.147 403.897 224.341 404.009V405.942ZM226.811 402.11C226.477 402.11 226.189 402.002 225.949 401.785C225.715 401.568 225.598 401.293 225.598 400.959C225.598 400.625 225.715 400.347 225.949 400.124C226.189 399.901 226.477 399.79 226.811 399.79C227.156 399.79 227.449 399.901 227.689 400.124C227.93 400.347 228.05 400.625 228.05 400.959C228.05 401.275 227.93 401.548 227.689 401.776C227.449 401.999 227.156 402.11 226.811 402.11ZM227.821 413H225.782V404H227.821V413ZM238.509 413H236.47V407.929C236.47 406.247 235.875 405.406 234.686 405.406C234.064 405.406 233.552 405.641 233.147 406.109C232.743 406.572 232.541 407.158 232.541 407.867V413H230.493V404H232.541V405.494H232.576C233.25 404.357 234.223 403.789 235.494 403.789C236.473 403.789 237.22 404.108 237.735 404.747C238.251 405.38 238.509 406.297 238.509 407.498V413ZM249.17 413H246.586L243.088 408.676H243.053V413H241.005V399.676H243.053V408.122H243.088L246.393 404H248.845L245.127 408.342L249.17 413Z" fill="white"/>
</g>
<defs>
<clipPath id="clip0">
<rect width="375" height="812" fill="white"/>
</clipPath>
</defs>
</svg>
